<svg width="112" height="22" viewBox="0 0 112 22" fill="none" xmlns="http://www.w3.org/2000/svg">
<path d="M14.1706 21.9999C16.2855 21.9999 17.9999 20.3422 17.9999 18.2974C17.9999 16.2526 16.2855 14.595 14.1706 14.595C12.0557 14.595 10.3413 16.2526 10.3413 18.2974C10.3413 20.3422 12.0557 21.9999 14.1706 21.9999Z" fill="url(#paint0_radial_1699_22227)"/>
<path d="M17.4486 1.96905C17.5042 7.93594 13.8878 10.2839 10.8021 12.978C7.86764 15.5467 5.20163 16.7878 5.20163 20.9885C5.17839 21.2348 5.06009 21.4637 4.87027 21.6295C4.68045 21.7954 4.43302 21.8861 4.1772 21.8835H1.09154C0.817859 21.8852 0.554557 21.7824 0.358737 21.5975C0.162916 21.4127 0.0503674 21.1606 0.0454998 20.896C0.0239001 15.0216 3.91183 12.4588 7.15794 9.47242C9.65732 7.17516 12.2277 5.55814 12.2925 1.98099C12.2989 1.72054 12.4095 1.47266 12.6012 1.28956C12.7929 1.10647 13.0506 1.00245 13.32 0.999433H16.4057C16.6768 0.994637 16.9389 1.09402 17.1344 1.27578C17.33 1.45755 17.4429 1.70686 17.4486 1.96905Z" fill="url(#paint1_linear_1699_22227)"/>
<path d="M5.14711 1.99574V7.84329C5.14438 8.10729 5.0334 8.35945 4.83855 8.5444L1.85163 11.4831C1.72152 11.652 1.53926 11.7766 1.33116 11.8388C1.12306 11.9011 0.899884 11.8977 0.693859 11.8293C0.487834 11.761 0.309619 11.631 0.184945 11.4583C0.06027 11.2856 -0.00441321 11.0791 0.000233977 10.8685V1.99574C-0.000173412 1.86477 0.026206 1.73502 0.0778547 1.61394C0.129503 1.49287 0.205402 1.38286 0.301184 1.29025C0.396966 1.19764 0.510742 1.12426 0.635965 1.07432C0.761188 1.02438 0.895388 0.998878 1.03084 0.999272H4.1165C4.25196 0.998878 4.38616 1.02438 4.51138 1.07432C4.6366 1.12426 4.75038 1.19764 4.84616 1.29025C4.94194 1.38286 5.01784 1.49287 5.06949 1.61394C5.12114 1.73502 5.14752 1.86477 5.14711 1.99574Z" fill="url(#paint2_linear_1699_22227)"/>
<path d="M53.0742 6.27368H51.4922C51.2046 6.27368 50.9714 6.51518 50.9714 6.81308V21.1098C50.9714 21.4077 51.2046 21.6492 51.4922 21.6492H53.0742C53.3618 21.6492 53.5949 21.4077 53.5949 21.1098V6.81308C53.5949 6.51518 53.3618 6.27368 53.0742 6.27368Z" fill="white"/>
<path d="M32.5969 13.2785L38.8208 6.41531C38.9148 6.32416 39.0393 6.27442 39.168 6.27661H40.6954C40.8082 6.25737 40.9239 6.27904 41.0229 6.33796C41.122 6.39687 41.1984 6.48942 41.2393 6.59996C41.2801 6.71049 41.2828 6.83224 41.247 6.94461C41.2111 7.05699 41.1389 7.1531 41.0426 7.21671L34.9575 13.8899L41.9006 20.748C41.9815 20.82 42.0378 20.9172 42.0611 21.025C42.0845 21.1329 42.0736 21.2457 42.0302 21.3466C41.9867 21.4476 41.913 21.5313 41.82 21.5854C41.727 21.6395 41.6196 21.6611 41.5137 21.647H39.8573C39.7843 21.6468 39.7121 21.6307 39.6454 21.5997C39.5788 21.5687 39.5192 21.5236 39.4705 21.4672L32.5969 14.6039V13.2785Z" fill="white"/>
<path d="M45.2854 6.27371H46.8625C46.994 6.27371 47.1202 6.32784 47.2132 6.42418C47.3062 6.52052 47.3584 6.65118 47.3584 6.78743V21.1047C47.3584 21.2409 47.3062 21.3716 47.2132 21.4679C47.1202 21.5642 46.994 21.6184 46.8625 21.6184H45.2805C45.149 21.6184 45.0228 21.5642 44.9298 21.4679C44.8368 21.3716 44.7846 21.2409 44.7846 21.1047V6.81311C44.7812 6.74309 44.7917 6.67308 44.8154 6.60741C44.8391 6.54174 44.8755 6.4818 44.9224 6.43127C44.9694 6.38073 45.0258 6.34069 45.0882 6.31359C45.1506 6.2865 45.2178 6.27293 45.2854 6.27371Z" fill="white"/>
<path d="M30.4965 6.27368H32.0786C32.2101 6.27368 32.3362 6.32781 32.4292 6.42415C32.5222 6.52049 32.5745 6.65115 32.5745 6.7874V21.1046C32.5745 21.2409 32.5222 21.3715 32.4292 21.4679C32.3362 21.5642 32.2101 21.6183 32.0786 21.6183H30.4965C30.365 21.6183 30.2389 21.5642 30.1459 21.4679C30.0529 21.3715 30.0006 21.2409 30.0006 21.1046V6.81308C29.9973 6.74349 30.0076 6.67392 30.031 6.6086C30.0544 6.54327 30.0904 6.48357 30.1368 6.43311C30.1832 6.38265 30.239 6.3425 30.3009 6.31509C30.3627 6.28768 30.4293 6.27359 30.4965 6.27368Z" fill="white"/>
<path d="M64.1502 13.9304V21.1224C64.1503 21.1921 64.1367 21.261 64.1102 21.3251C64.0838 21.3892 64.045 21.447 63.9963 21.495C63.9476 21.5431 63.8899 21.5804 63.8269 21.6046C63.7638 21.6289 63.6966 21.6396 63.6295 21.6361H62.0475C61.9803 21.6396 61.9131 21.6289 61.85 21.6046C61.787 21.5804 61.7293 21.5431 61.6806 21.495C61.6319 21.447 61.5932 21.3892 61.5667 21.3251C61.5402 21.261 61.5267 21.1921 61.5267 21.1224V14.1924C61.5267 10.0827 60.5597 8.59288 57.9313 8.59288C57.1919 8.55012 56.4563 8.72893 55.8125 9.10793C55.1687 9.48693 54.6439 10.0501 54.3011 10.7299C53.8051 11.7009 53.6216 12.9595 53.6216 15.0965V8.85488C53.6199 8.72592 53.6621 8.60045 53.7406 8.50042C54.8466 7.1288 56.3988 6.44556 58.4966 6.44556C60.8969 6.44556 62.6128 7.38565 63.4559 9.16311C63.932 10.2419 64.1502 11.7317 64.1502 13.9304Z" fill="white"/>
<path d="M69.3923 14.6518C69.4568 17.955 71.4554 19.866 74.8922 19.866C76.4187 19.8883 77.9306 19.5547 79.3158 18.8899C79.3801 18.8595 79.4497 18.8429 79.5203 18.841C79.591 18.839 79.6612 18.8519 79.727 18.8787C79.7927 18.9056 79.8525 18.9459 79.9029 18.9973C79.9533 19.0486 79.9931 19.1099 80.0201 19.1776L80.4118 20.1383C80.4651 20.2654 80.469 20.4089 80.4228 20.539C80.3767 20.6691 80.2839 20.7758 80.1639 20.8369C78.5028 21.6352 76.6883 22.0321 74.8574 21.9979C69.7642 21.9979 66.7986 19.0543 66.7986 13.9737C66.7986 9.02147 69.6105 5.94946 74.1731 5.94946C78.6364 5.94946 81.3244 8.82626 81.3244 13.5884V14.1021C81.3279 14.1739 81.3169 14.2457 81.292 14.3128C81.2671 14.3799 81.2288 14.4409 81.1798 14.4917C81.1307 14.5426 81.0718 14.5822 81.007 14.608C80.9423 14.6338 80.873 14.6452 80.8036 14.6415L69.3923 14.6518ZM78.7654 12.5969C78.6017 9.6328 77.0147 8.09165 74.2326 8.09165C71.4504 8.09165 69.675 9.70985 69.4568 12.5867L78.7654 12.5969Z" fill="white"/>
<path d="M94.2194 6.27436H95.8014C95.9329 6.27436 96.0591 6.32848 96.1521 6.42482C96.2451 6.52116 96.2973 6.65183 96.2973 6.78807V21.1053C96.2973 21.2415 96.2451 21.3722 96.1521 21.4685C96.0591 21.5649 95.9329 21.619 95.8014 21.619H94.2194C94.1522 21.6225 94.085 21.6118 94.022 21.5875C93.9589 21.5633 93.9013 21.526 93.8526 21.4779C93.8039 21.4299 93.7651 21.3721 93.7386 21.308C93.7122 21.2439 93.6986 21.175 93.6987 21.1053V6.81376C93.6951 6.74195 93.7061 6.67017 93.731 6.60305C93.7559 6.53594 93.7942 6.47499 93.8433 6.42415C93.8923 6.3733 93.9512 6.3337 94.016 6.3079C94.0808 6.28209 94.1501 6.27067 94.2194 6.27436Z" fill="white"/>
<path d="M102.529 13.2785L108.753 6.41531C108.847 6.32416 108.971 6.27442 109.1 6.27661H110.627C110.74 6.25737 110.856 6.27904 110.955 6.33796C111.054 6.39687 111.13 6.48942 111.171 6.59996C111.212 6.71049 111.215 6.83224 111.179 6.94461C111.143 7.05699 111.071 7.1531 110.974 7.21671L104.884 13.8899L111.827 20.748C111.908 20.82 111.965 20.9172 111.988 21.025C112.011 21.1329 112.001 21.2457 111.957 21.3466C111.914 21.4476 111.84 21.5313 111.747 21.5854C111.654 21.6395 111.546 21.6611 111.441 21.647H109.784C109.711 21.6468 109.639 21.6307 109.572 21.5997C109.506 21.5687 109.446 21.5236 109.397 21.4672L102.529 14.6039V13.2785Z" fill="white"/>
<path d="M100.421 6.27432H102.003C102.07 6.27084 102.137 6.28155 102.2 6.3058C102.263 6.33005 102.321 6.36734 102.369 6.4154C102.418 6.46345 102.457 6.52127 102.483 6.58533C102.51 6.64939 102.523 6.71836 102.523 6.78804V21.1053C102.523 21.1749 102.51 21.2439 102.483 21.308C102.457 21.372 102.418 21.4298 102.369 21.4779C102.321 21.526 102.263 21.5632 102.2 21.5875C102.137 21.6117 102.07 21.6225 102.003 21.619H100.421C100.289 21.619 100.163 21.5649 100.07 21.4685C99.9769 21.3722 99.9247 21.2415 99.9247 21.1053V6.81372C99.9213 6.74413 99.9317 6.67456 99.9551 6.60924C99.9785 6.54392 100.014 6.48421 100.061 6.43375C100.107 6.3833 100.163 6.34314 100.225 6.31573C100.287 6.28833 100.353 6.27424 100.421 6.27432Z" fill="white"/>
<path d="M90.8739 20.0609C90.8714 19.9809 90.8518 19.9024 90.8167 19.8311C90.7815 19.7598 90.7316 19.6974 90.6705 19.6483C90.6095 19.5993 90.5387 19.5648 90.4632 19.5473C90.3878 19.5298 90.3096 19.5298 90.2341 19.5472C89.9832 19.6026 89.727 19.6284 89.4704 19.6243C87.4867 19.6243 86.9908 18.8486 86.9908 15.9666V8.47667H88.9001C88.9694 8.48036 89.0387 8.46894 89.1035 8.44313C89.1683 8.41733 89.2271 8.37773 89.2762 8.32689C89.3253 8.27604 89.3635 8.21509 89.3884 8.14798C89.4133 8.08086 89.4244 8.00908 89.4208 7.93727V6.81737C89.4209 6.74769 89.4073 6.67873 89.3808 6.61466C89.3544 6.5506 89.3156 6.49278 89.2669 6.44473C89.2182 6.39668 89.1606 6.35939 89.0975 6.33514C89.0344 6.31088 88.9673 6.30017 88.9001 6.30366H86.9908V2.19394C86.9941 2.12435 86.9838 2.05478 86.9604 1.98946C86.937 1.92413 86.901 1.86443 86.8546 1.81397C86.8082 1.76351 86.7524 1.72336 86.6905 1.69595C86.6287 1.66854 86.5621 1.65445 86.4948 1.65454H85.007C84.9382 1.65454 84.8701 1.66866 84.8066 1.69609C84.7431 1.72352 84.6855 1.76371 84.6371 1.81434C84.5886 1.86497 84.5504 1.92505 84.5245 1.99108C84.4986 2.05712 84.4857 2.12781 84.4863 2.19908V6.3088H82.6167C82.4851 6.3088 82.359 6.36292 82.266 6.45926C82.173 6.5556 82.1207 6.68626 82.1207 6.82251V7.94241C82.1174 8.012 82.1277 8.08157 82.1511 8.1469C82.1745 8.21222 82.2105 8.27192 82.2569 8.32238C82.3033 8.37284 82.3591 8.41299 82.421 8.4404C82.4828 8.46781 82.5494 8.4819 82.6167 8.48181H84.3772V15.7611C84.3772 18.2835 84.5309 19.2852 85.0318 20.1945C85.6865 21.3555 86.8767 21.8743 88.8108 21.8743C89.3558 21.8794 89.9001 21.8347 90.4375 21.7408C90.5584 21.7256 90.6698 21.6649 90.7503 21.5702C90.8308 21.4754 90.8748 21.3533 90.8739 21.2271V20.0609Z" fill="white"/>
<path d="M95.0876 2.7771C95.8106 2.7771 96.3968 2.16991 96.3968 1.4209C96.3968 0.671889 95.8106 0.0646973 95.0876 0.0646973C94.3645 0.0646973 93.7783 0.671889 93.7783 1.4209C93.7783 2.16991 94.3645 2.7771 95.0876 2.7771Z" fill="white"/>
<path d="M46.0705 2.84623C46.8292 2.84623 47.4442 2.20913 47.4442 1.42324C47.4442 0.63734 46.8292 0.000244141 46.0705 0.000244141C45.3118 0.000244141 44.6968 0.63734 44.6968 1.42324C44.6968 2.20913 45.3118 2.84623 46.0705 2.84623Z" fill="white"/>
<defs>
<radialGradient id="paint0_radial_1699_22227" cx="0" cy="0" r="1" gradientUnits="userSpaceOnUse" gradientTransform="translate(9.85069 21.1407) scale(11.4077 11.0298)">
<stop stop-color="#16AAFE"/>
<stop offset="0.48" stop-color="#00DFCE"/>
<stop offset="1" stop-color="#12F7A7"/>
</radialGradient>
<linearGradient id="paint1_linear_1699_22227" x1="8.74705" y1="21.803" x2="8.74705" y2="-0.513173" gradientUnits="userSpaceOnUse">
<stop offset="0.05" stop-color="#16AAFE"/>
<stop offset="0.17" stop-color="#0EBCEE"/>
<stop offset="0.38" stop-color="#04D6D7"/>
<stop offset="0.51" stop-color="#00DFCE"/>
<stop offset="1" stop-color="#12F7A7"/>
</linearGradient>
<linearGradient id="paint2_linear_1699_22227" x1="2.57367" y1="19.5265" x2="2.57367" y2="-0.692341" gradientUnits="userSpaceOnUse">
<stop offset="0.05" stop-color="#16AAFE"/>
<stop offset="0.61" stop-color="#00DFCE"/>
<stop offset="1" stop-color="#12F7A7"/>
</linearGradient>
</defs>
</svg>
