<svg width="1573" height="730" viewBox="0 0 1573 730" fill="none" xmlns="http://www.w3.org/2000/svg">
<path d="M1130.67 358.333C1108.29 358.333 1102.05 383.667 1098.53 401.257C1092.49 431.383 1085.07 461.187 1076.52 490.701C1073.61 500.744 1070.4 510.567 1066.96 520.427C1065.41 524.891 1059.58 537.597 1064.17 541.776C1067.97 545.212 1071.76 548.635 1075.54 552.056C1078.55 554.773 1080.16 560.663 1075.43 562.859C1065.94 567.275 1058.24 555.404 1052.16 549.804C1050.25 548.045 1030.04 527.747 1030.2 527.641C1043.31 519.323 1052.88 506.913 1057.48 491.911C1061.85 477.657 1061.64 462.213 1058.14 447.719C1052.24 423.231 1035.06 399.963 1010.65 393.731C1002.04 391.532 993.041 391.525 984.152 391.532C916.212 391.583 848.272 391.633 780.332 391.685C792.116 396.199 802.535 404.212 809.921 414.443C808.524 414.429 807.145 414.456 805.783 414.473C799.601 414.575 793.771 414.679 788.251 411.237C776.372 403.835 765.079 396.893 751.029 394.427C729.172 390.589 705.269 393.32 682.991 393.32H632.831H452.851H283.781H208.907C203.48 395.347 185.147 402.933 173.68 422.96C169.68 429.933 159.6 450.493 167.52 474.4C177.24 503.707 205.76 513.173 208.76 514.107H322.973C323.96 514.8 326.52 516.787 327.453 520.253C328.347 523.573 327.24 526.333 326.333 528.64C324.867 532.333 322.547 534.88 320.747 536.48C247.12 537.027 173.493 537.587 99.8667 538.147C84.828 558.044 70.5213 578.176 53.5813 596.599C45.0093 605.919 36.0813 614.908 26.8973 623.624C20.0266 630.141 8.99732 644.399 0.437317 647.472C4.13065 646.147 7.93196 645.121 11.768 644.143C109.388 619.215 209.757 608.252 309.001 591.985C328.081 588.859 350.541 585.668 363.771 570.223C372.851 559.619 377.417 546.861 378.893 533.119C379.507 527.408 382.505 499.691 362.68 480C353.427 470.813 342.933 467.067 336.96 465.453C299.68 464.333 262.4 463.227 225.12 462.107C220.973 461 218.187 457.2 218.413 453.16C218.6 449.627 221.04 446.493 224.56 445.333C302.48 444.213 380.387 443.093 458.307 441.973C457.933 491 457.56 540.013 457.187 589.04C461.225 591.275 465.261 593.533 469.3 595.859C497.333 610.333 512 639.667 529.333 665C529.333 628.316 526.847 591.672 523.787 555.132C522.993 545.657 514.925 444.755 513.653 444.773C539.976 444.409 568.436 440.948 594.535 443.876C585.335 467.253 583.268 492.191 589.987 516.608C593.293 528.631 598.585 540.132 605.763 550.34C609.673 555.901 612.519 557.597 609.844 564.311C607.644 569.829 602.939 574.121 600.473 579.536C598.301 584.315 628.897 584.24 633.145 584.512C628.831 593.805 624.613 603.143 620.492 612.524C616.913 620.672 611.063 630.251 609.649 638.893C615.168 640.567 622.185 640.301 628.777 640.037C631.639 639.923 634.421 639.807 636.967 639.851C626.568 669.011 618.759 699.095 613.661 729.633C623.257 711.112 630.027 691.528 640.971 673.521C646.772 663.973 653.115 654.753 659.959 645.923C662.44 642.723 676.365 622.124 680.093 622.591C676.36 622.123 672.625 621.656 668.891 621.189C686.389 601.231 703.888 581.272 721.385 561.313C716.381 560.805 711.376 560.3 706.371 559.792C713.227 551.872 720.085 543.952 726.941 536.033C698.545 536.216 663.185 544.563 645.068 516.909C634.133 500.187 635.533 478.2 645.627 462.667C652.812 451.608 664.639 443.7 678.083 443.128C694.727 442.42 712.127 439.437 728.861 442.083C744.125 444.496 759.313 452.159 767.124 465.493C775.74 480.204 773.795 499.375 765.792 514.427C757.788 529.477 744.552 541.049 730.748 551.053C736.485 551.016 742.223 551.013 747.96 551.013C736.587 563.88 725.213 576.733 713.853 589.6C722.813 590.96 744.573 593.027 768.653 582.333C797.333 569.573 811.04 546.813 815.627 538.147C830.84 509.427 827.027 482.44 825.68 473.84C824.696 467.559 823.151 461.375 821.06 455.371C820.38 453.415 814.771 443.711 818.84 443.676C873.464 443.829 928.073 443.985 982.684 444.14C995.105 444.175 1007.38 448.971 1009.31 462.829C1011.66 479.743 1000.28 491.339 984.259 491.477C977.088 491.54 898.387 492.292 898.385 492.281C898.2 482.219 898.013 472.169 897.827 462.107C892.397 462.167 886.868 462.061 881.309 461.957C869.485 461.733 857.524 461.511 846.073 462.857C843.121 481.351 845.287 502.261 845.021 521.087C844.733 541.385 844.445 561.683 844.157 581.98C844.017 591.929 855.397 595.056 862.409 600.049C870.599 605.881 878.292 612.408 885.391 619.527C891.372 625.525 896.932 631.945 902.008 638.727C905.692 643.647 910.068 654.333 915.003 657.104C917.709 649.537 914.325 638.496 913.308 630.815C912.044 621.268 910.613 611.743 909.065 602.237C905.969 583.216 902.4 564.275 898.741 545.356C897.927 541.141 903.276 541.163 906.212 541.124L966.972 540.32C969.084 540.292 971.261 540.275 973.224 541.063C977.492 542.773 979.097 547.301 981.548 550.789C984.499 554.987 988.025 558.844 991.156 562.928C998.257 572.191 1005.36 581.453 1012.45 590.72C1043.03 590.533 1073.59 590.347 1104.16 590.16C1112.36 558.093 1120.56 526.04 1128.76 493.973C1137.77 494.667 1137.58 497.865 1141.17 505.971C1144.33 513.131 1147.5 520.292 1150.67 527.452L1169.67 570.417C1174.71 581.804 1181.48 590.059 1194.47 591.152C1216.33 592.991 1221.44 573.979 1227.66 557.296C1235.29 536.845 1242.91 516.395 1250.54 495.944C1258.37 474.929 1266.24 507.583 1268.15 514.549C1274.69 538.485 1281.23 562.421 1287.78 586.357C1290.98 598.079 1292.78 612.227 1298.08 623.153C1302.05 631.335 1312.11 632.891 1319.98 636.192C1339.77 644.489 1359.21 653.751 1377.61 664.833C1395.34 675.509 1410.21 690.597 1426.76 701.675C1384.59 608.295 1340.57 515.791 1299.41 421.943C1292.54 406.285 1283.15 384.14 1261.85 388.295C1251 390.409 1246.03 399.131 1241.54 408.319C1233.56 424.631 1225.59 440.941 1217.62 457.252C1212.31 468.107 1208.4 479.601 1202.85 490.34C1199.89 496.084 1194.79 508.661 1189.95 497.105C1180.34 474.133 1170.69 451.052 1164.68 426.885C1159.87 407.549 1158.84 358.331 1130.67 358.333Z" fill="url(#paint0_linear_2_3)"/>
<path d="M275.732 289.057C287.452 289.057 298.046 287.452 307.506 284.24C316.957 281.029 325.468 276.67 333.038 271.165L375.593 304.197L374.458 305.114C361.976 314.908 347.224 322.628 330.202 328.284C313.18 333.946 295.022 336.772 275.732 336.772C256.441 336.772 238.186 333.789 220.978 327.825C203.761 321.861 188.726 313.681 175.87 303.28C163.006 292.885 152.793 280.728 145.232 266.806C137.661 252.892 133.884 237.981 133.884 222.074C133.884 206.174 137.661 191.185 145.232 177.113C152.793 163.049 163.006 150.812 175.87 140.41C188.726 130.016 203.761 121.829 220.978 115.865C238.186 109.901 256.441 106.918 275.732 106.918C295.022 106.918 313.18 109.75 330.202 115.406C347.224 121.069 361.976 128.79 374.458 138.576L375.593 139.493L333.038 172.525C325.468 167.02 316.957 162.661 307.506 159.45C298.046 156.238 287.452 154.633 275.732 154.633C264.384 154.633 253.692 156.396 243.674 159.909C233.646 163.429 224.853 168.245 217.29 174.361C209.718 180.482 203.761 187.665 199.417 195.924C195.065 204.182 192.893 212.898 192.893 222.074C192.893 231.25 195.065 239.896 199.417 247.996C203.761 256.104 209.718 263.214 217.29 269.329C224.853 275.452 233.646 280.268 243.674 283.781C253.692 287.301 264.384 289.057 275.732 289.057Z" fill="#ffffff"/>
<path d="M545.243 288.599C556.591 288.599 567.371 286.843 577.584 283.323C587.797 279.809 596.592 275.064 603.968 269.1C611.344 263.136 617.204 256.104 621.557 247.996C625.901 239.896 628.081 231.251 628.081 222.075C628.081 212.899 625.901 204.181 621.557 195.923C617.204 187.665 611.344 180.555 603.968 174.589C596.592 168.625 587.797 163.887 577.584 160.368C567.371 156.855 556.591 155.092 545.243 155.092C533.895 155.092 523.115 156.855 512.901 160.368C502.688 163.887 493.796 168.625 486.233 174.589C478.663 180.555 472.705 187.665 468.361 195.923C464.008 204.181 461.836 212.899 461.836 222.075C461.836 231.251 464.008 239.896 468.361 247.996C472.705 256.104 478.663 263.136 486.233 269.1C493.796 275.064 502.688 279.809 512.901 283.323C523.115 286.843 533.895 288.599 545.243 288.599ZM545.243 107.377C564.535 107.377 582.78 110.36 599.996 116.324C617.204 122.288 632.24 130.475 645.104 140.869C657.959 151.271 668.172 163.428 675.743 177.343C683.305 191.264 687.091 206.175 687.091 222.075C687.091 237.981 683.305 252.892 675.743 266.805C668.172 280.727 657.959 292.807 645.104 303.051C632.24 313.301 617.204 321.401 599.996 327.367C582.78 333.329 564.535 336.312 545.243 336.312C525.571 336.312 507.131 333.329 489.921 327.367C472.705 321.401 457.767 313.301 445.099 303.051C432.42 292.807 422.403 280.727 415.027 266.805C407.651 252.892 403.963 237.981 403.963 222.075C403.963 206.175 407.651 191.264 415.027 177.343C422.403 163.428 432.42 151.271 445.099 140.869C457.767 130.475 472.705 122.288 489.921 116.324C507.131 110.36 525.571 107.377 545.243 107.377Z" fill="#ffffff"/>
<path d="M990.08 222.075C990.08 237.981 986.392 252.892 979.015 266.805C971.639 280.728 961.515 292.885 948.66 303.28C935.796 313.681 920.663 321.861 903.269 327.824C885.865 333.789 867.328 336.771 847.664 336.771C827.992 336.771 809.551 333.789 792.344 327.824C775.127 321.861 760.091 313.681 747.236 303.28C734.371 292.885 724.256 280.728 716.88 266.805C709.504 252.892 705.816 237.981 705.816 222.075V215.193C705.816 213.056 706.187 210.763 706.949 208.311C708.839 194.245 713.848 181.013 721.987 168.625C730.115 156.239 740.516 145.457 753.193 136.281C765.861 127.105 780.233 119.923 796.316 114.719C812.389 109.521 829.507 106.919 847.664 106.919C853.711 106.919 859.668 107.305 865.537 108.065C871.397 108.833 876.973 109.521 882.275 110.131L868.657 156.468C864.872 155.859 861.371 155.4 858.161 155.092C854.943 154.791 851.441 154.632 847.664 154.632C836.316 154.632 825.624 156.396 815.607 159.908C805.579 163.429 796.785 168.245 789.223 174.36C781.651 180.483 775.695 187.665 771.349 195.923C766.997 204.181 764.825 212.899 764.825 222.075C764.825 231.251 766.997 239.896 771.349 247.996C775.695 256.104 781.651 263.215 789.223 269.329C796.785 275.452 805.579 280.268 815.607 283.781C825.624 287.301 836.316 289.057 847.664 289.057C859.012 289.057 869.792 287.301 880.005 283.781C890.219 280.268 899.103 275.452 906.673 269.329C914.236 263.215 920.192 256.104 924.545 247.996C928.889 239.896 931.071 231.251 931.071 222.075V0.479858L990.08 47.2759V222.075Z" fill="#ffffff"/>
<path d="M1164.27 289.057C1175.62 289.057 1186.3 287.301 1196.33 283.781C1206.34 280.268 1215.14 275.522 1222.71 269.558C1230.27 263.594 1236.23 256.562 1240.58 248.454C1244.93 240.354 1247.11 231.558 1247.11 222.074H1306.12C1306.12 237.981 1302.43 252.892 1295.05 266.806C1287.68 280.728 1277.55 292.885 1264.7 303.28C1251.83 313.681 1236.8 321.861 1219.59 327.825C1202.37 333.789 1183.93 336.772 1164.27 336.772C1144.6 336.772 1126.16 333.789 1108.95 327.825C1091.73 321.861 1076.7 313.681 1063.84 303.28C1050.98 292.885 1040.86 280.728 1033.49 266.806C1026.11 252.892 1022.42 237.981 1022.42 222.074C1022.42 206.174 1026.11 191.264 1033.49 177.342C1040.86 163.429 1050.98 151.27 1063.84 140.869C1076.7 130.474 1091.73 122.288 1108.95 116.324C1126.16 110.36 1144.6 107.377 1164.27 107.377C1183.56 107.377 1201.52 110.209 1218.17 115.865C1234.81 121.529 1249.56 129.249 1262.43 139.033L1263.56 139.952L1302.14 172.066L1238.6 222.992H1160.3L1221.01 172.525C1213.82 167.328 1205.31 163.12 1195.47 159.909C1185.63 156.697 1175.24 155.092 1164.27 155.092C1152.92 155.092 1142.23 156.854 1132.21 160.368C1122.18 163.886 1113.39 168.705 1105.83 174.82C1098.26 180.941 1092.3 188.053 1087.95 196.153C1083.6 204.26 1081.43 212.898 1081.43 222.074C1081.43 231.25 1083.6 239.896 1087.95 247.996C1092.3 256.104 1098.26 263.214 1105.83 269.329C1113.39 275.452 1122.18 280.268 1132.21 283.781C1142.23 287.301 1152.92 289.057 1164.27 289.057Z" fill="#ffffff"/>
<path d="M1466.77 596.783V676.046H1457.17V606.846H1456.7L1437.35 619.695V609.942L1457.17 596.783H1466.77ZM1491.69 676.665C1489.78 676.665 1488.14 675.982 1486.77 674.614C1485.41 673.247 1484.72 671.608 1484.72 669.699C1484.72 667.789 1485.41 666.151 1486.77 664.784C1488.14 663.416 1489.78 662.732 1491.69 662.732C1493.6 662.732 1495.24 663.416 1496.6 664.784C1497.97 666.151 1498.66 667.789 1498.66 669.699C1498.66 670.963 1498.33 672.124 1497.69 673.182C1497.07 674.24 1496.23 675.091 1495.17 675.736C1494.14 676.356 1492.98 676.665 1491.69 676.665ZM1537.98 677.13C1532.15 677.13 1527.18 675.543 1523.08 672.369C1518.97 669.17 1515.84 664.538 1513.67 658.475C1511.51 652.386 1510.42 645.032 1510.42 636.415C1510.42 627.849 1511.51 620.534 1513.67 614.47C1515.87 608.381 1519.01 603.737 1523.12 600.538C1527.24 597.312 1532.2 595.7 1537.98 595.7C1543.76 595.7 1548.7 597.312 1552.8 600.538C1556.93 603.737 1560.08 608.381 1562.24 614.47C1564.44 620.534 1565.53 627.849 1565.53 636.415C1565.53 645.032 1564.45 652.386 1562.28 658.475C1560.12 664.538 1556.98 669.17 1552.88 672.369C1548.78 675.543 1543.81 677.13 1537.98 677.13ZM1537.98 668.615C1543.76 668.615 1548.25 665.829 1551.45 660.255C1554.65 654.682 1556.25 646.735 1556.25 636.415C1556.25 629.551 1555.51 623.707 1554.04 618.882C1552.59 614.058 1550.5 610.381 1547.77 607.852C1545.06 605.324 1541.8 604.059 1537.98 604.059C1532.25 604.059 1527.77 606.885 1524.55 612.535C1521.32 618.16 1519.71 626.12 1519.71 636.415C1519.71 643.278 1520.43 649.109 1521.88 653.908C1523.32 658.707 1525.4 662.358 1528.11 664.861C1530.84 667.364 1534.13 668.615 1537.98 668.615Z" fill="white"/>
<defs>
<linearGradient id="paint0_linear_2_3" x1="0.436917" y1="543.983" x2="1426.76" y2="543.983" gradientUnits="userSpaceOnUse">
<stop stop-color="#2B3990"/>
<stop offset="0.5" stop-color="#1C75BC"/>
<stop offset="1" stop-color="#2B3990"/>
</linearGradient>
</defs>
</svg>
